<svg xmlns="http://www.w3.org/2000/svg" width="250" height="251" fill="none" viewBox="0 0 250 251"><path fill="#0cb2d6" d="m156.288 228.304-19.896-57.58h-24.7L84 250.88h14.237a28.4 28.4 0 0 1 10.544-11.745 28.8 28.8 0 0 1 15.244-4.363 28.8 28.8 0 0 1 15.244 4.363 28.4 28.4 0 0 1 10.544 11.745h14.27zm-23.025-9.198a38.2 38.2 0 0 0-18.442 0l-4.075 1.032 9.167-26.991h8.545l8.917 26.991z"/><path fill="#fff" d="m220.071 173.662-55.184-26.781-17.462 17.294 37.65 76.075 10.066-9.973a28.04 28.04 0 0 1-.929-15.688 28.2 28.2 0 0 1 7.665-13.76 28.65 28.65 0 0 1 13.895-7.589 28.84 28.84 0 0 1 15.84.922l10.092-9.994zm-22.85 9.606a37.8 37.8 0 0 0-13.042 12.916l-2.142 3.59-12.796-25.497 6.05-5.988 25.571 12.85zM174.466 30.52l-27.041 54.65 17.462 17.294 76.817-37.286-10.071-9.97a28.84 28.84 0 0 1-15.841.92 28.66 28.66 0 0 1-13.894-7.59 28.23 28.23 0 0 1-7.663-13.76 28.05 28.05 0 0 1 .931-15.689l-10.091-9.994zm9.7 22.629a37.8 37.8 0 0 0 13.042 12.916l3.621 2.12-25.746 12.673-6.042-5.992 12.975-25.324zM92.754 23.455l19.896 57.58h24.7L165.042.88h-14.238a28.5 28.5 0 0 1-10.551 11.712 28.9 28.9 0 0 1-15.22 4.382 28.9 28.9 0 0 1-15.237-4.374A28.53 28.53 0 0 1 99.229.879H84.96zm23.025 9.198a38.2 38.2 0 0 0 18.442 0l4.075-1.032-9.167 26.991h-8.546l-8.916-26.99zm111.425 60.085-58.142 19.704v24.461L250 164.328v-14.1a28.5 28.5 0 0 1-11.859-10.442 28.1 28.1 0 0 1-4.406-15.097 28.1 28.1 0 0 1 4.406-15.097A28.5 28.5 0 0 1 250 99.151V85.018zm-9.287 22.803a37.1 37.1 0 0 0 0 18.263l1.041 4.036-27.254-9.078v-8.463l27.254-8.831zM75.533 218.826l27.042-54.651-17.462-17.294-76.817 37.287 10.07 9.969a28.85 28.85 0 0 1 15.841-.92 28.65 28.65 0 0 1 13.895 7.59 28.23 28.23 0 0 1 7.663 13.761 28.04 28.04 0 0 1-.932 15.688l10.092 9.994zm-9.7-22.63a37.8 37.8 0 0 0-13.041-12.915l-3.625-2.121 25.746-12.673 6.045 5.992-12.975 25.324zM29.93 75.684l55.183 26.78 17.462-17.294-37.65-76.075-10.067 9.974a28.04 28.04 0 0 1 .93 15.688 28.2 28.2 0 0 1-7.665 13.76 28.65 28.65 0 0 1-13.895 7.588 28.84 28.84 0 0 1-15.84-.922L8.296 65.178zm22.85-9.607a37.8 37.8 0 0 0 13.04-12.916l2.143-3.586 12.795 25.498-6.05 5.983-25.57-12.85zm-29.984 90.53 58.142-19.704v-24.461L0 85.018v14.1a28.6 28.6 0 0 1 11.826 10.449 28.23 28.23 0 0 1 4.424 15.073 28.23 28.23 0 0 1-4.416 15.09A28.63 28.63 0 0 1 0 150.195v14.133zm9.287-22.803a37.1 37.1 0 0 0 0-18.263l-1.041-4.036 27.254 9.078v8.464l-27.254 8.83z"/><path fill="#0cb2d6" fill-rule="evenodd" d="M117.969 145.879 112.5 161.23H111h22.445l-5.228-15.351zm15.476 15.351H135h-1.5v-.071zm1.555-1.981v-.019l-.015.019z" clip-rule="evenodd"/></svg>