<svg xmlns="http://www.w3.org/2000/svg" width="70" height="70" fill="none" viewBox="0 0 70 70"><path fill="#0cb2d6" d="m43.76 63.679-5.57-16.123h-6.916L23.52 70h3.986a7.95 7.95 0 0 1 2.953-3.288 8.06 8.06 0 0 1 4.268-1.222c1.51 0 2.99.423 4.268 1.222A7.95 7.95 0 0 1 41.948 70h3.995zm-6.446-2.576a10.7 10.7 0 0 0-5.164 0l-1.141.29 2.566-7.558h2.393l2.497 7.557z"/><path fill="#1c1c34" d="M61.62 48.379 46.168 40.88l-4.89 4.843 10.543 21.3 2.819-2.792a7.85 7.85 0 0 1-.26-4.392 7.9 7.9 0 0 1 2.145-3.853 8 8 0 0 1 3.89-2.125 8.1 8.1 0 0 1 4.436.258l2.826-2.798zm-6.398 2.69a10.6 10.6 0 0 0-3.652 3.616l-.6 1.005-3.582-7.139 1.694-1.676 7.16 3.598zM48.85 8.3l-7.57 15.301 4.89 4.842 21.508-10.44-2.82-2.792a8.1 8.1 0 0 1-4.435.258 8 8 0 0 1-3.89-2.126 7.9 7.9 0 0 1-2.146-3.853 7.85 7.85 0 0 1 .26-4.392L51.822 2.3zm2.716 6.336a10.6 10.6 0 0 0 3.652 3.616l1.014.594-7.209 3.548-1.692-1.678 3.633-7.09zM25.97 6.321l5.572 16.123h6.916L46.21 0h-3.986a8 8 0 0 1-2.955 3.28 8.1 8.1 0 0 1-4.26 1.226 8.1 8.1 0 0 1-4.267-1.225A8 8 0 0 1 27.783 0h-3.995zm6.448 2.576c1.695.421 3.469.421 5.164 0l1.14-.29-2.566 7.558h-2.393l-2.497-7.557zM63.617 25.72l-16.28 5.518v6.849L70 45.766v-3.948a8 8 0 0 1-3.32-2.924 7.87 7.87 0 0 1-1.234-4.227c0-1.496.427-2.962 1.233-4.227A8 8 0 0 1 70 27.516v-3.957zm-2.6 6.385a10.4 10.4 0 0 0 0 5.114l.291 1.13-7.63-2.542v-2.37l7.63-2.472zM21.15 61.025l7.57-15.302-4.889-4.843L2.323 51.32l2.82 2.792a8.1 8.1 0 0 1 4.435-.258 8 8 0 0 1 3.89 2.126 7.9 7.9 0 0 1 2.146 3.853 7.85 7.85 0 0 1-.26 4.392l2.825 2.799zm-2.717-6.336a10.6 10.6 0 0 0-3.651-3.617l-1.015-.594 7.208-3.548 1.693 1.678-3.633 7.09zM8.38 20.945l15.451 7.499 4.89-4.842L18.179 2.3 15.36 5.093a7.85 7.85 0 0 1 .26 4.393 7.9 7.9 0 0 1-2.146 3.852 8 8 0 0 1-3.89 2.125 8.1 8.1 0 0 1-4.436-.258l-2.825 2.798zm6.398-2.69a10.6 10.6 0 0 0 3.652-3.616l.6-1.004 3.582 7.14-1.694 1.675-7.16-3.598zM6.383 43.604l16.28-5.517v-6.85L0 23.56v3.948a8 8 0 0 1 3.311 2.926 7.9 7.9 0 0 1 1.239 4.22 7.9 7.9 0 0 1-1.237 4.225A8 8 0 0 1 0 41.808v3.958zm2.6-6.385a10.4 10.4 0 0 0 0-5.114l-.291-1.13 7.63 2.542v2.37l-7.63 2.472z"/><path fill="#0cb2d6" fill-rule="evenodd" d="M33.031 40.6 31.5 44.898h5.865L35.9 40.6zm4.349 4.298v-.02l-.015.02zm.42-.554h-.004l.004-.006z" clip-rule="evenodd"/></svg>